<?xml version="1.0" standalone="no"?>
<!DOCTYPE svg PUBLIC "-//W3C//DTD SVG 20010904//EN"
 "http://www.w3.org/TR/2001/REC-SVG-20010904/DTD/svg10.dtd">
<svg version="1.0" xmlns="http://www.w3.org/2000/svg"
 width="529.000000pt" height="402.000000pt" viewBox="0 0 529.000000 402.000000"
 preserveAspectRatio="xMidYMid meet">

<g transform="translate(0.000000,402.000000) scale(0.100000,-0.100000)"
fill="#000000" stroke="none">
<path d="M1993 3375 c-122 -33 -237 -127 -293 -237 -38 -78 -43 -117 -30 -278
19 -253 28 -316 53 -376 14 -32 32 -86 42 -118 10 -36 28 -70 46 -88 27 -27
35 -30 92 -28 85 3 87 3 87 -20 0 -12 -7 -20 -17 -20 -30 0 -117 -56 -156 -99
-31 -34 -43 -41 -74 -41 -83 0 -207 -87 -278 -195 -32 -48 -85 -185 -85 -220
0 -14 4 -13 30 5 60 43 28 -2 -73 -102 -78 -78 -112 -119 -136 -169 -31 -63
-60 -187 -61 -259 l0 -35 -19 30 c-36 58 -137 139 -256 205 -33 18 -78 48
-101 66 -23 19 -44 34 -48 34 -5 0 -21 -9 -37 -21 -41 -29 -142 -68 -183 -71
-41 -4 -44 2 66 -159 204 -300 438 -523 589 -562 88 -22 171 44 281 225 55 91
58 99 79 224 25 155 28 258 10 339 -11 50 -11 70 0 120 l13 60 6 -80 c6 -88
22 -122 73 -154 l32 -21 -46 0 -45 0 4 -57 c2 -38 -3 -86 -17 -138 -37 -144
-37 -177 -2 -317 31 -126 37 -201 25 -306 l-7 -52 -492 0 -492 0 -84 -39 -84
-38 1173 -8 c644 -4 1699 -4 2343 0 l1171 8 -82 38 -83 39 -464 0 -464 0 3 83
c1 45 -2 116 -6 158 -8 67 -6 85 15 150 22 68 24 87 21 246 l-3 172 40 50 c76
97 90 206 37 295 -13 22 -68 88 -120 146 -147 160 -150 180 -8 45 l53 -50 -14
40 c-37 105 -80 194 -105 218 -50 48 -132 78 -234 84 -87 5 -95 8 -126 37 -19
17 -40 43 -48 59 l-15 27 53 -5 c62 -7 76 1 107 63 12 24 38 65 57 91 51 72
64 111 64 195 0 62 5 83 26 123 25 47 26 52 21 188 -4 108 -10 154 -26 200
-46 129 -169 203 -356 212 -208 11 -360 -57 -435 -195 -87 -161 -76 -284 41
-467 72 -113 115 -202 128 -263 15 -73 13 -75 -14 -17 l-23 50 -1 -60 c-2 -69
-26 -132 -65 -162 -14 -12 -26 -23 -26 -26 0 -3 17 -8 38 -12 20 -3 48 -15 62
-26 20 -17 21 -20 5 -14 -11 4 -52 9 -90 12 -87 7 -165 -13 -241 -62 -90 -58
-122 -140 -164 -413 -18 -124 -25 -144 -84 -270 -35 -76 -69 -164 -76 -197 -7
-33 -23 -93 -37 -133 -48 -138 -18 -252 117 -453 75 -111 78 -119 52 -119 -26
0 -133 156 -189 276 -36 75 -38 84 -37 174 1 56 8 122 18 160 24 90 96 261
144 343 26 44 43 88 47 120 16 122 58 304 86 377 51 133 134 205 259 225 l44
7 -28 23 c-42 34 -106 49 -178 42 -51 -5 -57 -4 -35 4 l27 11 -23 19 c-14 10
-66 39 -116 65 -91 45 -93 47 -118 105 -14 33 -28 58 -30 56 -2 -3 -10 -35
-17 -73 l-14 -69 -1 65 c-1 76 13 134 68 291 73 206 77 330 15 457 -90 183
-345 292 -551 237z m261 -65 c186 -64 296 -204 296 -376 0 -53 -33 -173 -72
-262 -11 -26 -29 -78 -39 -117 l-19 -70 3 53 c4 52 4 52 -16 35 -18 -17 -18
-15 3 24 28 55 32 148 8 186 -10 15 -29 27 -45 29 l-28 4 28 14 c21 10 33 11
52 2 23 -11 27 -9 46 21 32 51 23 170 -19 259 -66 136 -156 183 -352 183 -105
0 -120 -3 -174 -28 -80 -37 -141 -88 -177 -150 -17 -29 -27 -41 -24 -27 26 92
161 212 272 240 56 14 190 4 257 -20z m1307 -70 c45 -14 77 -32 110 -62 25
-24 34 -33 20 -22 -63 53 -131 78 -224 82 -193 10 -347 -61 -412 -189 -46 -90
-42 -243 9 -355 34 -75 16 -60 -22 18 -91 189 -53 366 104 474 103 71 285 95
415 54z m-350 -461 c-45 -42 -52 -99 -20 -168 l20 -45 -22 20 c-33 30 -49 69
-49 122 0 57 26 92 67 92 l27 0 -23 -21z m403 -1067 c89 -62 133 -162 116
-266 -5 -30 -15 -67 -24 -83 -14 -27 -14 -25 -9 33 9 103 -34 219 -114 305
-48 51 -35 56 31 11z m-1665 -52 c-22 -86 -25 -206 -5 -254 8 -18 24 -41 37
-50 l23 -16 -28 0 c-45 0 -93 35 -100 74 -7 34 12 142 37 211 18 48 50 116 53
112 2 -1 -6 -36 -17 -77z m1092 -378 l-10 -67 50 -77 c28 -42 64 -112 81 -154
46 -119 33 -164 -78 -286 -36 -40 -70 -81 -74 -93 -5 -14 -1 -41 11 -79 11
-32 18 -61 15 -63 -14 -14 -35 12 -56 69 -46 125 -150 318 -171 318 -5 0 -6
19 -2 42 4 30 23 64 60 113 70 90 150 253 166 336 16 84 23 35 8 -59z m-1151
-221 l75 -70 -37 -1 c-94 -1 -130 -159 -58 -258 15 -21 42 -44 59 -52 37 -15
39 -22 9 -35 -36 -16 -77 -77 -90 -133 -11 -44 -16 -52 -33 -50 -18 3 -20 9
-17 56 1 29 12 78 23 108 l21 55 -23 62 c-18 51 -23 92 -28 234 -7 198 -15
191 99 84z m2025 -137 c-21 -71 -28 -67 -9 6 8 30 15 66 15 80 2 24 2 24 6 -3
2 -15 -3 -52 -12 -83z m-93 -196 c-25 -49 -27 -61 -25 -160 1 -88 -1 -108 -13
-108 -11 0 -14 15 -14 62 0 34 -5 76 -12 93 -10 30 -8 36 36 99 26 36 49 66
51 66 3 0 -8 -24 -23 -52z"/>
<path d="M2868 3191 c-140 -55 -217 -158 -218 -292 0 -142 66 -256 224 -383
130 -104 169 -158 185 -256 l8 -45 16 37 c22 48 22 162 1 223 -8 26 -43 92
-76 148 -94 156 -102 179 -102 277 0 76 3 92 32 148 18 34 49 81 69 103 30 33
34 42 22 50 -23 15 -111 9 -161 -10z m41 -49 c-41 -21 -61 -40 -86 -81 -74
-123 -61 -326 29 -455 15 -21 17 -27 5 -17 -34 27 -97 134 -117 198 -44 144
-14 262 84 330 44 30 91 50 125 52 7 1 -11 -12 -40 -27z"/>
<path d="M269 2176 c-144 -59 -233 -173 -261 -333 -30 -176 67 -370 222 -442
51 -24 66 -26 190 -26 132 0 136 1 202 33 84 41 177 139 210 221 19 46 23 75
23 161 0 98 -2 110 -32 170 -18 36 -51 83 -74 105 l-42 40 27 -41 c16 -24 24
-48 20 -58 -8 -22 -51 -32 -83 -19 -72 29 -68 28 -49 7 54 -61 74 -183 43
-257 -20 -49 -70 -104 -116 -127 -119 -61 -264 -10 -320 114 -57 126 17 289
151 331 l45 14 -35 0 c-19 0 -60 -10 -90 -23 -59 -26 -83 -22 -95 13 -14 46
48 103 143 131 l27 8 -25 1 c-14 0 -50 -10 -81 -23z"/>
<path d="M4967 2180 c96 -34 135 -76 119 -128 -10 -30 -38 -32 -97 -6 -30 13
-67 23 -84 23 -28 -1 -28 -1 11 -15 138 -49 203 -206 140 -339 -70 -151 -278
-177 -385 -48 -72 87 -79 214 -17 298 40 54 40 57 -3 36 -48 -25 -84 -27 -105
-5 -22 22 -21 29 20 74 20 22 32 40 26 40 -13 0 -82 -76 -109 -120 -120 -197
-31 -478 186 -582 60 -29 77 -33 177 -36 129 -5 192 9 267 59 58 38 117 114
148 189 32 78 33 230 1 311 -49 123 -141 214 -256 252 -69 23 -103 21 -39 -3z"/>
<path d="M362 1877 c-12 -13 -22 -30 -22 -39 0 -46 -69 -47 -95 0 -16 27 -16
27 -11 -22 20 -173 214 -257 340 -147 27 24 56 86 55 118 l-1 28 -9 -32 c-9
-32 -42 -63 -66 -63 -6 0 -18 7 -27 15 -12 12 -13 22 -5 42 5 15 7 33 4 42 -4
10 -11 5 -23 -20 -15 -29 -23 -34 -59 -37 -33 -2 -44 1 -57 20 -22 31 -20 60
5 92 27 34 2 36 -29 3z"/>
<path d="M4898 1877 c43 -46 17 -117 -42 -117 -41 0 -64 17 -76 55 -8 26 -9
23 -7 -24 1 -41 -2 -56 -15 -64 -24 -16 -69 19 -85 64 l-12 34 0 -30 c-1 -36
29 -104 55 -127 55 -48 150 -61 220 -29 71 32 125 119 123 197 0 27 -1 28 -9
6 -20 -47 -100 -51 -100 -3 0 20 -40 61 -60 61 -9 0 -6 -8 8 -23z"/>
<path d="M4492 1370 c-72 -46 -185 -104 -222 -114 -14 -4 -64 -26 -112 -48
l-88 -41 0 -51 c-1 -45 -11 -136 -36 -298 -4 -28 -3 -48 2 -48 18 0 191 118
294 200 58 47 171 150 252 229 l148 144 -82 33 c-45 19 -85 34 -88 34 -3 0
-34 -18 -68 -40z"/>
</g>
</svg>
